<svg width="19" height="18" viewBox="0 0 19 18" fill="none" xmlns="http://www.w3.org/2000/svg">
<g id="metro_basic_red.svg">
<g id="g10">
<g id="g12">
<path id="path14" d="M9.557 9.72623C9.55396 9.73172 9.55013 9.73694 9.54549 9.74145C9.53987 9.74704 9.53337 9.75146 9.52634 9.75472C9.51745 9.75872 9.50808 9.76071 9.49878 9.76071C9.49871 9.76071 9.49871 9.76071 9.49864 9.76071C9.48946 9.76071 9.48017 9.75883 9.47136 9.75479C9.46411 9.75152 9.45743 9.74698 9.45165 9.74123C9.44712 9.73675 9.44337 9.73165 9.4404 9.72623L7.26724 5.91714L4.87425 11.9658H6.40392L7.59254 8.5627C7.60223 8.53483 7.62889 8.51822 7.65671 8.51817C7.67973 8.51906 7.70189 8.52922 7.71455 8.5501L9.49871 11.4861L11.2829 8.5501C11.2954 8.52951 11.3173 8.51817 11.3397 8.51817C11.3407 8.51817 11.3414 8.51817 11.3421 8.51817C11.3696 8.51817 11.3953 8.53529 11.4049 8.5627L12.5935 11.9658H14.1232L11.7302 5.91714L9.557 9.72623Z" fill="#ED1C24"/>
<path id="path16" d="M14.5465 11.5098L11.8069 4.58442L9.49878 8.62994L7.19079 4.58442L4.45093 11.5098H3.64655V12.554H7.78507V11.5098H7.16545L7.76826 9.7841L9.49878 12.6318L11.2294 9.78381L11.832 11.5098H11.2124V12.554H15.3509V11.5098H14.5465ZM14.9937 12.0984H11.5695C11.5327 12.0984 11.503 12.0686 11.503 12.0319C11.503 11.9951 11.5327 11.9654 11.5695 11.9654H12.4526L11.3249 8.73663L9.55894 11.6427C9.55357 11.654 9.54497 11.6639 9.53344 11.6709C9.52265 11.6775 9.51075 11.6805 9.49897 11.6805C9.49878 11.6805 9.49864 11.6805 9.49846 11.6805C9.48667 11.6805 9.47477 11.6775 9.46397 11.6709C9.45246 11.6639 9.44387 11.654 9.43847 11.6427L7.67252 8.73663L6.54477 11.9654H7.42797C7.46468 11.9654 7.49446 11.9951 7.49446 12.0319C7.49446 12.0686 7.46468 12.0984 7.42797 12.0984H4.00368C3.96695 12.0984 3.93718 12.0686 3.93718 12.0319C3.93718 11.9951 3.96695 11.9654 4.00368 11.9654H4.73123L7.19261 5.74384C7.20326 5.71695 7.22884 5.70194 7.25687 5.70182C7.28035 5.70194 7.30429 5.71312 7.31694 5.73541L9.49871 9.5596L11.6805 5.73541C11.6931 5.71312 11.7163 5.70163 11.7406 5.70182C11.7651 5.70103 11.7942 5.71689 11.8048 5.74384L14.2662 11.9654H14.9937C15.0305 11.9654 15.0602 11.9951 15.0602 12.0319C15.0602 12.0686 15.0305 12.0984 14.9937 12.0984Z" fill="#ED1C24"/>
</g>
</g>
</g>
</svg>
